<?xml version="1.0" encoding="utf-8" standalone="no"?>
<!DOCTYPE svg PUBLIC "-//W3C//DTD SVG 1.1//EN"
  "http://www.w3.org/Graphics/SVG/1.1/DTD/svg11.dtd">
<!-- Created with matplotlib (https://matplotlib.org/) -->
<svg height="403.2pt" version="1.1" viewBox="0 0 252 403.2" width="252pt" xmlns="http://www.w3.org/2000/svg" xmlns:xlink="http://www.w3.org/1999/xlink">
 <metadata>
  <rdf:RDF xmlns:cc="http://creativecommons.org/ns#" xmlns:dc="http://purl.org/dc/elements/1.1/" xmlns:rdf="http://www.w3.org/1999/02/22-rdf-syntax-ns#">
   <cc:Work>
    <dc:type rdf:resource="http://purl.org/dc/dcmitype/StillImage"/>
    <dc:date>2024-12-11T14:52:52.585221</dc:date>
    <dc:format>image/svg+xml</dc:format>
    <dc:creator>
     <cc:Agent>
      <dc:title>Matplotlib v3.3.4, https://matplotlib.org/</dc:title>
     </cc:Agent>
    </dc:creator>
   </cc:Work>
  </rdf:RDF>
 </metadata>
 <defs>
  <style type="text/css">*{stroke-linecap:butt;stroke-linejoin:round;}</style>
 </defs>
 <g id="figure_1">
  <g id="patch_1">
   <path d="M 0 403.2 
L 252 403.2 
L 252 0 
L 0 0 
z
" style="fill:none;"/>
  </g>
  <g id="axes_1">
   <g id="patch_2">
    <path d="M 31.5 186.754909 
L 226.8 186.754909 
L 226.8 48.384 
L 31.5 48.384 
z
" style="fill:#ffffff;"/>
   </g>
   <g id="matplotlib.axis_1">
    <g id="xtick_1">
     <g id="line2d_1">
      <path clip-path="url(#pbdbcdc3fd1)" d="M 31.5 186.754909 
L 31.5 48.384 
" style="fill:none;stroke:#b0b0b0;stroke-dasharray:2.22,0.96;stroke-dashoffset:0;stroke-width:0.6;"/>
     </g>
     <g id="line2d_2">
      <defs>
       <path d="M 0 0 
L 0 3.5 
" id="mc4191e05f4" style="stroke:#000000;stroke-width:0.8;"/>
      </defs>
      <g>
       <use style="stroke:#000000;stroke-width:0.8;" x="31.5" xlink:href="#mc4191e05f4" y="186.754909"/>
      </g>
     </g>
     <g id="text_1">
      <!-- $\mathdefault{10^{1}}$ -->
      <g transform="translate(26.42 199.481159)">
       <text>
        <tspan style="font-family:Arial Narrow;font-size:8px;font-style:bold;font-weight:bold;" x="0 3.648438" y="-0.06562500000000071">10</tspan>
        <tspan style="font-family:Arial Narrow;font-size:5.6px;font-style:bold;font-weight:bold;" x="7.369609" y="-2.9750000000000005">1</tspan>
       </text>
      </g>
     </g>
    </g>
    <g id="xtick_2">
     <g id="line2d_3">
      <path clip-path="url(#pbdbcdc3fd1)" d="M 51.03 186.754909 
L 51.03 48.384 
" style="fill:none;stroke:#b0b0b0;stroke-dasharray:2.22,0.96;stroke-dashoffset:0;stroke-width:0.6;"/>
     </g>
     <g id="line2d_4">
      <g>
       <use style="stroke:#000000;stroke-width:0.8;" x="51.03" xlink:href="#mc4191e05f4" y="186.754909"/>
      </g>
     </g>
     <g id="text_2">
      <!-- $\mathdefault{10^{2}}$ -->
      <g transform="translate(45.95 199.481159)">
       <text>
        <tspan style="font-family:Arial Narrow;font-size:8px;font-style:bold;font-weight:bold;" x="0 3.648438" y="-0.06562500000000071">10</tspan>
        <tspan style="font-family:Arial Narrow;font-size:5.6px;font-style:bold;font-weight:bold;" x="7.369609" y="-2.9750000000000005">2</tspan>
       </text>
      </g>
     </g>
    </g>
    <g id="xtick_3">
     <g id="line2d_5">
      <path clip-path="url(#pbdbcdc3fd1)" d="M 70.56 186.754909 
L 70.56 48.384 
" style="fill:none;stroke:#b0b0b0;stroke-dasharray:2.22,0.96;stroke-dashoffset:0;stroke-width:0.6;"/>
     </g>
     <g id="line2d_6">
      <g>
       <use style="stroke:#000000;stroke-width:0.8;" x="70.56" xlink:href="#mc4191e05f4" y="186.754909"/>
      </g>
     </g>
     <g id="text_3">
      <!-- $\mathdefault{10^{3}}$ -->
      <g transform="translate(65.48 199.481159)">
       <text>
        <tspan style="font-family:Arial Narrow;font-size:8px;font-style:bold;font-weight:bold;" x="0 3.648438" y="-0.06562500000000071">10</tspan>
        <tspan style="font-family:Arial Narrow;font-size:5.6px;font-style:bold;font-weight:bold;" x="7.369609" y="-2.9750000000000005">3</tspan>
       </text>
      </g>
     </g>
    </g>
    <g id="xtick_4">
     <g id="line2d_7">
      <path clip-path="url(#pbdbcdc3fd1)" d="M 90.09 186.754909 
L 90.09 48.384 
" style="fill:none;stroke:#b0b0b0;stroke-dasharray:2.22,0.96;stroke-dashoffset:0;stroke-width:0.6;"/>
     </g>
     <g id="line2d_8">
      <g>
       <use style="stroke:#000000;stroke-width:0.8;" x="90.09" xlink:href="#mc4191e05f4" y="186.754909"/>
      </g>
     </g>
     <g id="text_4">
      <!-- $\mathdefault{10^{4}}$ -->
      <g transform="translate(85.01 199.481159)">
       <text>
        <tspan style="font-family:Arial Narrow;font-size:8px;font-style:bold;font-weight:bold;" x="0 3.648438" y="-0.06562500000000071">10</tspan>
        <tspan style="font-family:Arial Narrow;font-size:5.6px;font-style:bold;font-weight:bold;" x="7.369609" y="-2.9750000000000005">4</tspan>
       </text>
      </g>
     </g>
    </g>
    <g id="xtick_5">
     <g id="line2d_9">
      <path clip-path="url(#pbdbcdc3fd1)" d="M 109.62 186.754909 
L 109.62 48.384 
" style="fill:none;stroke:#b0b0b0;stroke-dasharray:2.22,0.96;stroke-dashoffset:0;stroke-width:0.6;"/>
     </g>
     <g id="line2d_10">
      <g>
       <use style="stroke:#000000;stroke-width:0.8;" x="109.62" xlink:href="#mc4191e05f4" y="186.754909"/>
      </g>
     </g>
     <g id="text_5">
      <!-- $\mathdefault{10^{5}}$ -->
      <g transform="translate(104.54 199.481159)">
       <text>
        <tspan style="font-family:Arial Narrow;font-size:8px;font-style:bold;font-weight:bold;" x="0 3.648438" y="-0.13125000000000053">10</tspan>
        <tspan style="font-family:Arial Narrow;font-size:5.6px;font-style:bold;font-weight:bold;" x="7.369609" y="-3.0406250000000004">5</tspan>
       </text>
      </g>
     </g>
    </g>
    <g id="xtick_6">
     <g id="line2d_11">
      <path clip-path="url(#pbdbcdc3fd1)" d="M 129.15 186.754909 
L 129.15 48.384 
" style="fill:none;stroke:#b0b0b0;stroke-dasharray:2.22,0.96;stroke-dashoffset:0;stroke-width:0.6;"/>
     </g>
     <g id="line2d_12">
      <g>
       <use style="stroke:#000000;stroke-width:0.8;" x="129.15" xlink:href="#mc4191e05f4" y="186.754909"/>
      </g>
     </g>
     <g id="text_6">
      <!-- $\mathdefault{10^{6}}$ -->
      <g transform="translate(124.07 199.481159)">
       <text>
        <tspan style="font-family:Arial Narrow;font-size:8px;font-style:bold;font-weight:bold;" x="0 3.648438" y="-0.06562500000000071">10</tspan>
        <tspan style="font-family:Arial Narrow;font-size:5.6px;font-style:bold;font-weight:bold;" x="7.369609" y="-2.9750000000000005">6</tspan>
       </text>
      </g>
     </g>
    </g>
    <g id="xtick_7">
     <g id="line2d_13">
      <path clip-path="url(#pbdbcdc3fd1)" d="M 148.68 186.754909 
L 148.68 48.384 
" style="fill:none;stroke:#b0b0b0;stroke-dasharray:2.22,0.96;stroke-dashoffset:0;stroke-width:0.6;"/>
     </g>
     <g id="line2d_14">
      <g>
       <use style="stroke:#000000;stroke-width:0.8;" x="148.68" xlink:href="#mc4191e05f4" y="186.754909"/>
      </g>
     </g>
     <g id="text_7">
      <!-- $\mathdefault{10^{7}}$ -->
      <g transform="translate(143.6 199.481159)">
       <text>
        <tspan style="font-family:Arial Narrow;font-size:8px;font-style:bold;font-weight:bold;" x="0 3.648438" y="-0.13125000000000053">10</tspan>
        <tspan style="font-family:Arial Narrow;font-size:5.6px;font-style:bold;font-weight:bold;" x="7.369609" y="-3.0406250000000004">7</tspan>
       </text>
      </g>
     </g>
    </g>
    <g id="xtick_8">
     <g id="line2d_15">
      <path clip-path="url(#pbdbcdc3fd1)" d="M 168.21 186.754909 
L 168.21 48.384 
" style="fill:none;stroke:#b0b0b0;stroke-dasharray:2.22,0.96;stroke-dashoffset:0;stroke-width:0.6;"/>
     </g>
     <g id="line2d_16">
      <g>
       <use style="stroke:#000000;stroke-width:0.8;" x="168.21" xlink:href="#mc4191e05f4" y="186.754909"/>
      </g>
     </g>
     <g id="text_8">
      <!-- $\mathdefault{10^{8}}$ -->
      <g transform="translate(163.13 199.481159)">
       <text>
        <tspan style="font-family:Arial Narrow;font-size:8px;font-style:bold;font-weight:bold;" x="0 3.648438" y="-0.06562500000000071">10</tspan>
        <tspan style="font-family:Arial Narrow;font-size:5.6px;font-style:bold;font-weight:bold;" x="7.369609" y="-2.9750000000000005">8</tspan>
       </text>
      </g>
     </g>
    </g>
    <g id="xtick_9">
     <g id="line2d_17">
      <path clip-path="url(#pbdbcdc3fd1)" d="M 187.74 186.754909 
L 187.74 48.384 
" style="fill:none;stroke:#b0b0b0;stroke-dasharray:2.22,0.96;stroke-dashoffset:0;stroke-width:0.6;"/>
     </g>
     <g id="line2d_18">
      <g>
       <use style="stroke:#000000;stroke-width:0.8;" x="187.74" xlink:href="#mc4191e05f4" y="186.754909"/>
      </g>
     </g>
     <g id="text_9">
      <!-- $\mathdefault{10^{9}}$ -->
      <g transform="translate(182.66 199.481159)">
       <text>
        <tspan style="font-family:Arial Narrow;font-size:8px;font-style:bold;font-weight:bold;" x="0 3.648438" y="-0.06562500000000071">10</tspan>
        <tspan style="font-family:Arial Narrow;font-size:5.6px;font-style:bold;font-weight:bold;" x="7.369609" y="-2.9750000000000005">9</tspan>
       </text>
      </g>
     </g>
    </g>
    <g id="xtick_10">
     <g id="line2d_19">
      <path clip-path="url(#pbdbcdc3fd1)" d="M 207.27 186.754909 
L 207.27 48.384 
" style="fill:none;stroke:#b0b0b0;stroke-dasharray:2.22,0.96;stroke-dashoffset:0;stroke-width:0.6;"/>
     </g>
     <g id="line2d_20">
      <g>
       <use style="stroke:#000000;stroke-width:0.8;" x="207.27" xlink:href="#mc4191e05f4" y="186.754909"/>
      </g>
     </g>
     <g id="text_10">
      <!-- $\mathdefault{10^{10}}$ -->
      <g transform="translate(200.91 199.481159)">
       <text>
        <tspan style="font-family:Arial Narrow;font-size:8px;font-style:bold;font-weight:bold;" x="0 3.648438" y="-0.06562500000000071">10</tspan>
        <tspan style="font-family:Arial Narrow;font-size:5.6px;font-style:bold;font-weight:bold;" x="7.369609 9.923516" y="-2.9750000000000005">10</tspan>
       </text>
      </g>
     </g>
    </g>
    <g id="xtick_11">
     <g id="line2d_21">
      <path clip-path="url(#pbdbcdc3fd1)" d="M 226.8 186.754909 
L 226.8 48.384 
" style="fill:none;stroke:#b0b0b0;stroke-dasharray:2.22,0.96;stroke-dashoffset:0;stroke-width:0.6;"/>
     </g>
     <g id="line2d_22">
      <g>
       <use style="stroke:#000000;stroke-width:0.8;" x="226.8" xlink:href="#mc4191e05f4" y="186.754909"/>
      </g>
     </g>
     <g id="text_11">
      <!-- $\mathdefault{10^{11}}$ -->
      <g transform="translate(220.44 199.481159)">
       <text>
        <tspan style="font-family:Arial Narrow;font-size:8px;font-style:bold;font-weight:bold;" x="0 3.648438" y="-0.06562500000000071">10</tspan>
        <tspan style="font-family:Arial Narrow;font-size:5.6px;font-style:bold;font-weight:bold;" x="7.369609 9.923516" y="-2.9750000000000005">11</tspan>
       </text>
      </g>
     </g>
    </g>
   </g>
   <g id="matplotlib.axis_2">
    <g id="ytick_1">
     <g id="line2d_23">
      <path clip-path="url(#pbdbcdc3fd1)" d="M 31.5 168.876336 
L 226.8 168.876336 
" style="fill:none;stroke:#b0b0b0;stroke-dasharray:2.22,0.96;stroke-dashoffset:0;stroke-width:0.6;"/>
     </g>
     <g id="line2d_24">
      <defs>
       <path d="M 0 0 
L -3.5 0 
" id="mda901234b8" style="stroke:#000000;stroke-width:0.8;"/>
      </defs>
      <g>
       <use style="stroke:#000000;stroke-width:0.8;" x="31.5" xlink:href="#mda901234b8" y="168.876336"/>
      </g>
     </g>
     <g id="text_12">
      <text style="font-family:Arial Narrow;font-size:8px;font-stretch:normal;font-style:normal;font-weight:normal;text-anchor:end;" transform="rotate(-0, 24.5, 171.739461)" x="24.5" y="171.739461">−60</text>
     </g>
    </g>
    <g id="ytick_2">
     <g id="line2d_25">
      <path clip-path="url(#pbdbcdc3fd1)" d="M 31.5 145.777008 
L 226.8 145.777008 
" style="fill:none;stroke:#b0b0b0;stroke-dasharray:2.22,0.96;stroke-dashoffset:0;stroke-width:0.6;"/>
     </g>
     <g id="line2d_26">
      <g>
       <use style="stroke:#000000;stroke-width:0.8;" x="31.5" xlink:href="#mda901234b8" y="145.777008"/>
      </g>
     </g>
     <g id="text_13">
      <text style="font-family:Arial Narrow;font-size:8px;font-stretch:normal;font-style:normal;font-weight:normal;text-anchor:end;" transform="rotate(-0, 24.5, 148.640133)" x="24.5" y="148.640133">−40</text>
     </g>
    </g>
    <g id="ytick_3">
     <g id="line2d_27">
      <path clip-path="url(#pbdbcdc3fd1)" d="M 31.5 122.677681 
L 226.8 122.677681 
" style="fill:none;stroke:#b0b0b0;stroke-dasharray:2.22,0.96;stroke-dashoffset:0;stroke-width:0.6;"/>
     </g>
     <g id="line2d_28">
      <g>
       <use style="stroke:#000000;stroke-width:0.8;" x="31.5" xlink:href="#mda901234b8" y="122.677681"/>
      </g>
     </g>
     <g id="text_14">
      <text style="font-family:Arial Narrow;font-size:8px;font-stretch:normal;font-style:normal;font-weight:normal;text-anchor:end;" transform="rotate(-0, 24.5, 125.540806)" x="24.5" y="125.540806">−20</text>
     </g>
    </g>
    <g id="ytick_4">
     <g id="line2d_29">
      <path clip-path="url(#pbdbcdc3fd1)" d="M 31.5 99.578354 
L 226.8 99.578354 
" style="fill:none;stroke:#b0b0b0;stroke-dasharray:2.22,0.96;stroke-dashoffset:0;stroke-width:0.6;"/>
     </g>
     <g id="line2d_30">
      <g>
       <use style="stroke:#000000;stroke-width:0.8;" x="31.5" xlink:href="#mda901234b8" y="99.578354"/>
      </g>
     </g>
     <g id="text_15">
      <text style="font-family:Arial Narrow;font-size:8px;font-stretch:normal;font-style:normal;font-weight:normal;text-anchor:end;" transform="rotate(-0, 24.5, 102.441479)" x="24.5" y="102.441479">0</text>
     </g>
    </g>
    <g id="ytick_5">
     <g id="line2d_31">
      <path clip-path="url(#pbdbcdc3fd1)" d="M 31.5 76.479027 
L 226.8 76.479027 
" style="fill:none;stroke:#b0b0b0;stroke-dasharray:2.22,0.96;stroke-dashoffset:0;stroke-width:0.6;"/>
     </g>
     <g id="line2d_32">
      <g>
       <use style="stroke:#000000;stroke-width:0.8;" x="31.5" xlink:href="#mda901234b8" y="76.479027"/>
      </g>
     </g>
     <g id="text_16">
      <text style="font-family:Arial Narrow;font-size:8px;font-stretch:normal;font-style:normal;font-weight:normal;text-anchor:end;" transform="rotate(-0, 24.5, 79.342152)" x="24.5" y="79.342152">20</text>
     </g>
    </g>
    <g id="ytick_6">
     <g id="line2d_33">
      <path clip-path="url(#pbdbcdc3fd1)" d="M 31.5 53.3797 
L 226.8 53.3797 
" style="fill:none;stroke:#b0b0b0;stroke-dasharray:2.22,0.96;stroke-dashoffset:0;stroke-width:0.6;"/>
     </g>
     <g id="line2d_34">
      <g>
       <use style="stroke:#000000;stroke-width:0.8;" x="31.5" xlink:href="#mda901234b8" y="53.3797"/>
      </g>
     </g>
     <g id="text_17">
      <text style="font-family:Arial Narrow;font-size:8px;font-stretch:normal;font-style:normal;font-weight:normal;text-anchor:end;" transform="rotate(-0, 24.5, 56.242825)" x="24.5" y="56.242825">40</text>
     </g>
    </g>
    <g id="text_18">
     <text style="font-family:Arial Narrow;font-size:8px;font-stretch:normal;font-style:normal;font-weight:normal;text-anchor:middle;" transform="rotate(-90, 7.68625, 117.569455)" x="7.68625" y="117.569455">Magnitude [dB]</text>
    </g>
   </g>
   <g id="line2d_35">
    <path clip-path="url(#pbdbcdc3fd1)" d="M 31.3047 58.949035 
L 117.6273 59.056125 
L 122.7051 59.295229 
L 125.8299 59.646992 
L 128.3688 60.154525 
L 130.5171 60.815762 
L 132.4701 61.653456 
L 134.4231 62.747666 
L 136.3761 64.104535 
L 138.5244 65.876196 
L 141.0633 68.276681 
L 144.3834 71.761099 
L 149.0706 77.039583 
L 157.6638 87.109051 
L 166.6476 97.928631 
L 171.1395 103.664325 
L 174.2643 108.001278 
L 176.8032 111.882039 
L 179.1468 115.846931 
L 181.4904 120.234264 
L 184.0293 125.46713 
L 186.9588 132.042533 
L 196.3332 153.640962 
L 198.2862 157.338942 
L 200.2392 160.549703 
L 201.9969 163.009287 
L 203.7546 165.066049 
L 205.317 166.569632 
L 206.8794 167.788631 
L 208.4418 168.751295 
L 210.1995 169.570905 
L 212.1525 170.216955 
L 214.3008 170.686256 
L 217.035 171.03452 
L 220.5504 171.232059 
L 224.847 171.24592 
L 226.9953 171.177939 
L 226.9953 171.177939 
" style="fill:none;stroke:#0000ff;stroke-linecap:square;"/>
   </g>
   <g id="line2d_36">
    <path clip-path="url(#pbdbcdc3fd1)" d="M 31.3047 58.540468 
L 118.6038 58.648383 
L 123.6816 58.889269 
L 126.8064 59.243504 
L 129.3453 59.754317 
L 131.4936 60.419364 
L 133.4466 61.261233 
L 135.3996 62.359977 
L 137.3526 63.721321 
L 139.5009 65.497416 
L 142.0398 67.902256 
L 145.3599 71.39144 
L 150.0471 76.678414 
L 157.6638 85.641218 
L 164.1087 93.528639 
L 168.0147 98.654552 
L 170.9442 102.870141 
L 173.4831 106.925359 
L 175.8267 111.091476 
L 178.1703 115.707903 
L 180.7092 121.21608 
L 183.4434 127.687181 
L 186.9588 136.619032 
L 191.4507 147.977622 
L 193.7943 153.270429 
L 195.9426 157.602896 
L 198.0909 161.466547 
L 200.2392 164.864136 
L 201.9969 167.267064 
L 203.7546 169.301258 
L 205.317 170.791728 
L 206.8794 171.994181 
L 208.4418 172.93527 
L 210.1995 173.727878 
L 212.1525 174.346361 
L 214.3008 174.793806 
L 217.035 175.131468 
L 220.941 175.363639 
L 226.9953 175.482789 
L 226.9953 175.482789 
" style="fill:none;stroke:#0000ff;stroke-dasharray:3.7,1.6;stroke-dashoffset:0;"/>
   </g>
   <g id="line2d_37">
    <path clip-path="url(#pbdbcdc3fd1)" d="M 31.3047 54.673587 
L 114.8931 54.784524 
L 119.7756 55.016329 
L 122.9004 55.364818 
L 125.4393 55.868009 
L 127.5876 56.524205 
L 129.5406 57.356389 
L 131.4936 58.444647 
L 133.4466 59.795715 
L 135.5949 61.561799 
L 138.1338 63.957236 
L 141.2586 67.224903 
L 145.9458 72.487982 
L 154.3437 82.312542 
L 164.304 94.262928 
L 168.9912 100.202011 
L 172.3113 104.764105 
L 175.0455 108.90709 
L 177.5844 113.173825 
L 180.1233 117.88799 
L 183.0528 123.839096 
L 186.7635 131.946398 
L 195.7473 151.856015 
L 198.0909 156.379633 
L 200.0439 159.674526 
L 201.8016 162.199262 
L 203.364 164.071101 
L 204.9264 165.598508 
L 206.4888 166.807517 
L 208.0512 167.737906 
L 209.8089 168.509358 
L 211.7619 169.101536 
L 213.9102 169.520638 
L 216.6444 169.821135 
L 220.1598 169.972979 
L 224.2611 169.932408 
L 226.9953 169.786876 
L 226.9953 169.786876 
" style="fill:none;stroke:#008000;stroke-linecap:square;"/>
   </g>
   <g id="line2d_38">
    <path clip-path="url(#pbdbcdc3fd1)" d="M 31.3047 58.733082 
L 117.6273 58.839716 
L 122.7051 59.077835 
L 125.8299 59.428233 
L 128.3688 59.933962 
L 130.5171 60.593113 
L 132.4701 61.428542 
L 134.4231 62.520336 
L 136.3761 63.874907 
L 138.5244 65.644477 
L 141.0633 68.043365 
L 144.1881 71.314647 
L 148.8753 76.584571 
L 156.492 85.525766 
L 163.3275 93.840816 
L 167.2335 98.903249 
L 170.163 103.039611 
L 172.7019 107.010717 
L 175.0455 111.107845 
L 177.3891 115.693896 
L 179.7327 120.791469 
L 182.4669 127.321326 
L 190.4742 146.944412 
L 192.8178 151.808097 
L 195.3567 156.58051 
L 197.7003 160.553943 
L 199.8486 163.757074 
L 201.6063 165.997604 
L 203.1687 167.671782 
L 204.7311 169.044346 
L 206.2935 170.133331 
L 207.8559 170.972039 
L 209.6136 171.667887 
L 211.5666 172.203476 
L 213.9102 172.613342 
L 217.035 172.914756 
L 221.5269 173.100591 
L 226.9953 173.17339 
L 226.9953 173.17339 
" style="fill:none;stroke:#008000;stroke-dasharray:3.7,1.6;stroke-dashoffset:0;"/>
   </g>
   <g id="line2d_39">
    <path clip-path="url(#pbdbcdc3fd1)" d="M 31.3047 56.388352 
L 116.2602 56.497013 
L 121.338 56.739505 
L 124.4628 57.095963 
L 127.0017 57.609711 
L 129.15 58.278148 
L 131.103 59.123693 
L 133.056 60.226361 
L 135.009 61.591453 
L 137.1573 63.371006 
L 139.6962 65.778634 
L 143.0163 69.269092 
L 147.7035 74.552468 
L 156.1014 84.403184 
L 164.1087 94.081265 
L 168.4053 99.597466 
L 171.5301 103.970273 
L 174.069 107.901198 
L 176.4126 111.936032 
L 178.7562 116.420085 
L 181.2951 121.78278 
L 184.4199 128.959137 
L 190.8648 143.949931 
L 193.2084 148.74186 
L 195.3567 152.622164 
L 197.3097 155.683824 
L 199.0674 158.043828 
L 200.8251 160.026271 
L 202.3875 161.479532 
L 203.9499 162.659406 
L 205.7076 163.692347 
L 207.4653 164.458682 
L 209.4183 165.059575 
L 211.7619 165.522283 
L 214.4961 165.820927 
L 218.0115 165.966849 
L 222.1128 165.908933 
L 226.0188 165.64099 
L 226.9953 165.540193 
L 226.9953 165.540193 
" style="fill:none;stroke:#ff0000;stroke-linecap:square;"/>
   </g>
   <g id="line2d_40">
    <path clip-path="url(#pbdbcdc3fd1)" d="M 31.3047 59.316376 
L 117.6273 59.426562 
L 122.5098 59.65685 
L 125.6346 60.003187 
L 128.1735 60.503528 
L 130.3218 61.156417 
L 132.2748 61.984999 
L 134.2278 63.069394 
L 136.1808 64.416758 
L 138.3291 66.179418 
L 140.868 68.572113 
L 143.9928 71.838624 
L 148.4847 76.880831 
L 155.9061 85.582686 
L 162.7416 93.887079 
L 166.8429 99.198509 
L 169.7724 103.341679 
L 172.3113 107.322799 
L 174.6549 111.433928 
L 176.9985 116.039364 
L 179.3421 121.160615 
L 182.0763 127.71507 
L 189.4977 145.943124 
L 191.8413 150.880727 
L 194.3802 155.738969 
L 196.9191 160.137218 
L 199.0674 163.427271 
L 200.8251 165.752011 
L 202.5828 167.703524 
L 204.1452 169.117072 
L 205.7076 170.243892 
L 207.27 171.115508 
L 209.0277 171.841505 
L 210.9807 172.402262 
L 213.3243 172.832649 
L 216.2538 173.135931 
L 220.5504 173.33566 
L 226.9953 173.426345 
L 226.9953 173.426345 
" style="fill:none;stroke:#ff0000;stroke-dasharray:3.7,1.6;stroke-dashoffset:0;"/>
   </g>
   <g id="patch_3">
    <path d="M 31.5 186.754909 
L 31.5 48.384 
" style="fill:none;stroke:#000000;stroke-linecap:square;stroke-linejoin:miter;stroke-width:0.8;"/>
   </g>
   <g id="patch_4">
    <path d="M 226.8 186.754909 
L 226.8 48.384 
" style="fill:none;stroke:#000000;stroke-linecap:square;stroke-linejoin:miter;stroke-width:0.8;"/>
   </g>
   <g id="patch_5">
    <path d="M 31.5 186.754909 
L 226.8 186.754909 
" style="fill:none;stroke:#000000;stroke-linecap:square;stroke-linejoin:miter;stroke-width:0.8;"/>
   </g>
   <g id="patch_6">
    <path d="M 31.5 48.384 
L 226.8 48.384 
" style="fill:none;stroke:#000000;stroke-linecap:square;stroke-linejoin:miter;stroke-width:0.8;"/>
   </g>
   <g id="legend_1">
    <g id="patch_7">
     <path d="M 37.1 182.754909 
L 121.305 182.754909 
Q 122.905 182.754909 122.905 181.154909 
L 122.905 113.517409 
Q 122.905 111.917409 121.305 111.917409 
L 37.1 111.917409 
Q 35.5 111.917409 35.5 113.517409 
L 35.5 181.154909 
Q 35.5 182.754909 37.1 182.754909 
z
" style="fill:#ffffff;opacity:0.8;stroke:#cccccc;stroke-linejoin:miter;"/>
    </g>
    <g id="line2d_41">
     <path d="M 38.7 118.043659 
L 54.7 118.043659 
" style="fill:none;stroke:#0000ff;stroke-linecap:square;"/>
    </g>
    <g id="line2d_42"/>
    <g id="text_19">
     <text style="font-family:Arial Narrow;font-size:8px;font-stretch:normal;font-style:normal;font-weight:normal;text-anchor:start;" transform="rotate(-0, 61.1, 120.843659)" x="61.1" y="120.843659">Schematic -25° C</text>
    </g>
    <g id="line2d_43">
     <path d="M 38.7 129.446159 
L 54.7 129.446159 
" style="fill:none;stroke:#0000ff;stroke-dasharray:3.7,1.6;stroke-dashoffset:0;"/>
    </g>
    <g id="line2d_44"/>
    <g id="text_20">
     <text style="font-family:Arial Narrow;font-size:8px;font-stretch:normal;font-style:normal;font-weight:normal;text-anchor:start;" transform="rotate(-0, 61.1, 132.246159)" x="61.1" y="132.246159">Post Layout -25° C</text>
    </g>
    <g id="line2d_45">
     <path d="M 38.7 140.856159 
L 54.7 140.856159 
" style="fill:none;stroke:#008000;stroke-linecap:square;"/>
    </g>
    <g id="line2d_46"/>
    <g id="text_21">
     <text style="font-family:Arial Narrow;font-size:8px;font-stretch:normal;font-style:normal;font-weight:normal;text-anchor:start;" transform="rotate(-0, 61.1, 143.656159)" x="61.1" y="143.656159">Schematic 25° C</text>
    </g>
    <g id="line2d_47">
     <path d="M 38.7 152.258659 
L 54.7 152.258659 
" style="fill:none;stroke:#008000;stroke-dasharray:3.7,1.6;stroke-dashoffset:0;"/>
    </g>
    <g id="line2d_48"/>
    <g id="text_22">
     <text style="font-family:Arial Narrow;font-size:8px;font-stretch:normal;font-style:normal;font-weight:normal;text-anchor:start;" transform="rotate(-0, 61.1, 155.058659)" x="61.1" y="155.058659">Post Layout 25° C</text>
    </g>
    <g id="line2d_49">
     <path d="M 38.7 163.668659 
L 54.7 163.668659 
" style="fill:none;stroke:#ff0000;stroke-linecap:square;"/>
    </g>
    <g id="line2d_50"/>
    <g id="text_23">
     <text style="font-family:Arial Narrow;font-size:8px;font-stretch:normal;font-style:normal;font-weight:normal;text-anchor:start;" transform="rotate(-0, 61.1, 166.468659)" x="61.1" y="166.468659">Schematic 75° C</text>
    </g>
    <g id="line2d_51">
     <path d="M 38.7 175.071159 
L 54.7 175.071159 
" style="fill:none;stroke:#ff0000;stroke-dasharray:3.7,1.6;stroke-dashoffset:0;"/>
    </g>
    <g id="line2d_52"/>
    <g id="text_24">
     <text style="font-family:Arial Narrow;font-size:8px;font-stretch:normal;font-style:normal;font-weight:normal;text-anchor:start;" transform="rotate(-0, 61.1, 177.871159)" x="61.1" y="177.871159">Post Layout 75° C</text>
    </g>
   </g>
  </g>
  <g id="axes_2">
   <g id="patch_8">
    <path d="M 31.5 352.8 
L 226.8 352.8 
L 226.8 214.429091 
L 31.5 214.429091 
z
" style="fill:#ffffff;"/>
   </g>
   <g id="matplotlib.axis_3">
    <g id="xtick_12">
     <g id="line2d_53">
      <path clip-path="url(#p8c685acf26)" d="M 31.5 352.8 
L 31.5 214.429091 
" style="fill:none;stroke:#b0b0b0;stroke-dasharray:2.22,0.96;stroke-dashoffset:0;stroke-width:0.6;"/>
     </g>
     <g id="line2d_54">
      <g>
       <use style="stroke:#000000;stroke-width:0.8;" x="31.5" xlink:href="#mc4191e05f4" y="352.8"/>
      </g>
     </g>
     <g id="text_25">
      <!-- $\mathdefault{10^{1}}$ -->
      <g transform="translate(26.42 365.52625)">
       <text>
        <tspan style="font-family:Arial Narrow;font-size:8px;font-style:bold;font-weight:bold;" x="0 3.648438" y="-0.06562500000000071">10</tspan>
        <tspan style="font-family:Arial Narrow;font-size:5.6px;font-style:bold;font-weight:bold;" x="7.369609" y="-2.9750000000000005">1</tspan>
       </text>
      </g>
     </g>
    </g>
    <g id="xtick_13">
     <g id="line2d_55">
      <path clip-path="url(#p8c685acf26)" d="M 51.03 352.8 
L 51.03 214.429091 
" style="fill:none;stroke:#b0b0b0;stroke-dasharray:2.22,0.96;stroke-dashoffset:0;stroke-width:0.6;"/>
     </g>
     <g id="line2d_56">
      <g>
       <use style="stroke:#000000;stroke-width:0.8;" x="51.03" xlink:href="#mc4191e05f4" y="352.8"/>
      </g>
     </g>
     <g id="text_26">
      <!-- $\mathdefault{10^{2}}$ -->
      <g transform="translate(45.95 365.52625)">
       <text>
        <tspan style="font-family:Arial Narrow;font-size:8px;font-style:bold;font-weight:bold;" x="0 3.648438" y="-0.06562500000000071">10</tspan>
        <tspan style="font-family:Arial Narrow;font-size:5.6px;font-style:bold;font-weight:bold;" x="7.369609" y="-2.9750000000000005">2</tspan>
       </text>
      </g>
     </g>
    </g>
    <g id="xtick_14">
     <g id="line2d_57">
      <path clip-path="url(#p8c685acf26)" d="M 70.56 352.8 
L 70.56 214.429091 
" style="fill:none;stroke:#b0b0b0;stroke-dasharray:2.22,0.96;stroke-dashoffset:0;stroke-width:0.6;"/>
     </g>
     <g id="line2d_58">
      <g>
       <use style="stroke:#000000;stroke-width:0.8;" x="70.56" xlink:href="#mc4191e05f4" y="352.8"/>
      </g>
     </g>
     <g id="text_27">
      <!-- $\mathdefault{10^{3}}$ -->
      <g transform="translate(65.48 365.52625)">
       <text>
        <tspan style="font-family:Arial Narrow;font-size:8px;font-style:bold;font-weight:bold;" x="0 3.648438" y="-0.06562500000000071">10</tspan>
        <tspan style="font-family:Arial Narrow;font-size:5.6px;font-style:bold;font-weight:bold;" x="7.369609" y="-2.9750000000000005">3</tspan>
       </text>
      </g>
     </g>
    </g>
    <g id="xtick_15">
     <g id="line2d_59">
      <path clip-path="url(#p8c685acf26)" d="M 90.09 352.8 
L 90.09 214.429091 
" style="fill:none;stroke:#b0b0b0;stroke-dasharray:2.22,0.96;stroke-dashoffset:0;stroke-width:0.6;"/>
     </g>
     <g id="line2d_60">
      <g>
       <use style="stroke:#000000;stroke-width:0.8;" x="90.09" xlink:href="#mc4191e05f4" y="352.8"/>
      </g>
     </g>
     <g id="text_28">
      <!-- $\mathdefault{10^{4}}$ -->
      <g transform="translate(85.01 365.52625)">
       <text>
        <tspan style="font-family:Arial Narrow;font-size:8px;font-style:bold;font-weight:bold;" x="0 3.648438" y="-0.06562500000000071">10</tspan>
        <tspan style="font-family:Arial Narrow;font-size:5.6px;font-style:bold;font-weight:bold;" x="7.369609" y="-2.9750000000000005">4</tspan>
       </text>
      </g>
     </g>
    </g>
    <g id="xtick_16">
     <g id="line2d_61">
      <path clip-path="url(#p8c685acf26)" d="M 109.62 352.8 
L 109.62 214.429091 
" style="fill:none;stroke:#b0b0b0;stroke-dasharray:2.22,0.96;stroke-dashoffset:0;stroke-width:0.6;"/>
     </g>
     <g id="line2d_62">
      <g>
       <use style="stroke:#000000;stroke-width:0.8;" x="109.62" xlink:href="#mc4191e05f4" y="352.8"/>
      </g>
     </g>
     <g id="text_29">
      <!-- $\mathdefault{10^{5}}$ -->
      <g transform="translate(104.54 365.52625)">
       <text>
        <tspan style="font-family:Arial Narrow;font-size:8px;font-style:bold;font-weight:bold;" x="0 3.648438" y="-0.13125000000000053">10</tspan>
        <tspan style="font-family:Arial Narrow;font-size:5.6px;font-style:bold;font-weight:bold;" x="7.369609" y="-3.0406250000000004">5</tspan>
       </text>
      </g>
     </g>
    </g>
    <g id="xtick_17">
     <g id="line2d_63">
      <path clip-path="url(#p8c685acf26)" d="M 129.15 352.8 
L 129.15 214.429091 
" style="fill:none;stroke:#b0b0b0;stroke-dasharray:2.22,0.96;stroke-dashoffset:0;stroke-width:0.6;"/>
     </g>
     <g id="line2d_64">
      <g>
       <use style="stroke:#000000;stroke-width:0.8;" x="129.15" xlink:href="#mc4191e05f4" y="352.8"/>
      </g>
     </g>
     <g id="text_30">
      <!-- $\mathdefault{10^{6}}$ -->
      <g transform="translate(124.07 365.52625)">
       <text>
        <tspan style="font-family:Arial Narrow;font-size:8px;font-style:bold;font-weight:bold;" x="0 3.648438" y="-0.06562500000000071">10</tspan>
        <tspan style="font-family:Arial Narrow;font-size:5.6px;font-style:bold;font-weight:bold;" x="7.369609" y="-2.9750000000000005">6</tspan>
       </text>
      </g>
     </g>
    </g>
    <g id="xtick_18">
     <g id="line2d_65">
      <path clip-path="url(#p8c685acf26)" d="M 148.68 352.8 
L 148.68 214.429091 
" style="fill:none;stroke:#b0b0b0;stroke-dasharray:2.22,0.96;stroke-dashoffset:0;stroke-width:0.6;"/>
     </g>
     <g id="line2d_66">
      <g>
       <use style="stroke:#000000;stroke-width:0.8;" x="148.68" xlink:href="#mc4191e05f4" y="352.8"/>
      </g>
     </g>
     <g id="text_31">
      <!-- $\mathdefault{10^{7}}$ -->
      <g transform="translate(143.6 365.52625)">
       <text>
        <tspan style="font-family:Arial Narrow;font-size:8px;font-style:bold;font-weight:bold;" x="0 3.648438" y="-0.13125000000000053">10</tspan>
        <tspan style="font-family:Arial Narrow;font-size:5.6px;font-style:bold;font-weight:bold;" x="7.369609" y="-3.0406250000000004">7</tspan>
       </text>
      </g>
     </g>
    </g>
    <g id="xtick_19">
     <g id="line2d_67">
      <path clip-path="url(#p8c685acf26)" d="M 168.21 352.8 
L 168.21 214.429091 
" style="fill:none;stroke:#b0b0b0;stroke-dasharray:2.22,0.96;stroke-dashoffset:0;stroke-width:0.6;"/>
     </g>
     <g id="line2d_68">
      <g>
       <use style="stroke:#000000;stroke-width:0.8;" x="168.21" xlink:href="#mc4191e05f4" y="352.8"/>
      </g>
     </g>
     <g id="text_32">
      <!-- $\mathdefault{10^{8}}$ -->
      <g transform="translate(163.13 365.52625)">
       <text>
        <tspan style="font-family:Arial Narrow;font-size:8px;font-style:bold;font-weight:bold;" x="0 3.648438" y="-0.06562500000000071">10</tspan>
        <tspan style="font-family:Arial Narrow;font-size:5.6px;font-style:bold;font-weight:bold;" x="7.369609" y="-2.9750000000000005">8</tspan>
       </text>
      </g>
     </g>
    </g>
    <g id="xtick_20">
     <g id="line2d_69">
      <path clip-path="url(#p8c685acf26)" d="M 187.74 352.8 
L 187.74 214.429091 
" style="fill:none;stroke:#b0b0b0;stroke-dasharray:2.22,0.96;stroke-dashoffset:0;stroke-width:0.6;"/>
     </g>
     <g id="line2d_70">
      <g>
       <use style="stroke:#000000;stroke-width:0.8;" x="187.74" xlink:href="#mc4191e05f4" y="352.8"/>
      </g>
     </g>
     <g id="text_33">
      <!-- $\mathdefault{10^{9}}$ -->
      <g transform="translate(182.66 365.52625)">
       <text>
        <tspan style="font-family:Arial Narrow;font-size:8px;font-style:bold;font-weight:bold;" x="0 3.648438" y="-0.06562500000000071">10</tspan>
        <tspan style="font-family:Arial Narrow;font-size:5.6px;font-style:bold;font-weight:bold;" x="7.369609" y="-2.9750000000000005">9</tspan>
       </text>
      </g>
     </g>
    </g>
    <g id="xtick_21">
     <g id="line2d_71">
      <path clip-path="url(#p8c685acf26)" d="M 207.27 352.8 
L 207.27 214.429091 
" style="fill:none;stroke:#b0b0b0;stroke-dasharray:2.22,0.96;stroke-dashoffset:0;stroke-width:0.6;"/>
     </g>
     <g id="line2d_72">
      <g>
       <use style="stroke:#000000;stroke-width:0.8;" x="207.27" xlink:href="#mc4191e05f4" y="352.8"/>
      </g>
     </g>
     <g id="text_34">
      <!-- $\mathdefault{10^{10}}$ -->
      <g transform="translate(200.91 365.52625)">
       <text>
        <tspan style="font-family:Arial Narrow;font-size:8px;font-style:bold;font-weight:bold;" x="0 3.648438" y="-0.06562500000000071">10</tspan>
        <tspan style="font-family:Arial Narrow;font-size:5.6px;font-style:bold;font-weight:bold;" x="7.369609 9.923516" y="-2.9750000000000005">10</tspan>
       </text>
      </g>
     </g>
    </g>
    <g id="xtick_22">
     <g id="line2d_73">
      <path clip-path="url(#p8c685acf26)" d="M 226.8 352.8 
L 226.8 214.429091 
" style="fill:none;stroke:#b0b0b0;stroke-dasharray:2.22,0.96;stroke-dashoffset:0;stroke-width:0.6;"/>
     </g>
     <g id="line2d_74">
      <g>
       <use style="stroke:#000000;stroke-width:0.8;" x="226.8" xlink:href="#mc4191e05f4" y="352.8"/>
      </g>
     </g>
     <g id="text_35">
      <!-- $\mathdefault{10^{11}}$ -->
      <g transform="translate(220.44 365.52625)">
       <text>
        <tspan style="font-family:Arial Narrow;font-size:8px;font-style:bold;font-weight:bold;" x="0 3.648438" y="-0.06562500000000071">10</tspan>
        <tspan style="font-family:Arial Narrow;font-size:5.6px;font-style:bold;font-weight:bold;" x="7.369609 9.923516" y="-2.9750000000000005">11</tspan>
       </text>
      </g>
     </g>
    </g>
   </g>
   <g id="matplotlib.axis_4">
    <g id="ytick_7">
     <g id="line2d_75">
      <path clip-path="url(#p8c685acf26)" d="M 31.5 340.446621 
L 226.8 340.446621 
" style="fill:none;stroke:#b0b0b0;stroke-dasharray:2.22,0.96;stroke-dashoffset:0;stroke-width:0.6;"/>
     </g>
     <g id="line2d_76">
      <g>
       <use style="stroke:#000000;stroke-width:0.8;" x="31.5" xlink:href="#mda901234b8" y="340.446621"/>
      </g>
     </g>
     <g id="text_36">
      <text style="font-family:Arial Narrow;font-size:8px;font-stretch:normal;font-style:normal;font-weight:normal;text-anchor:end;" transform="rotate(-0, 24.5, 343.309746)" x="24.5" y="343.309746">−400</text>
     </g>
    </g>
    <g id="ytick_8">
     <g id="line2d_77">
      <path clip-path="url(#p8c685acf26)" d="M 31.5 310.514633 
L 226.8 310.514633 
" style="fill:none;stroke:#b0b0b0;stroke-dasharray:2.22,0.96;stroke-dashoffset:0;stroke-width:0.6;"/>
     </g>
     <g id="line2d_78">
      <g>
       <use style="stroke:#000000;stroke-width:0.8;" x="31.5" xlink:href="#mda901234b8" y="310.514633"/>
      </g>
     </g>
     <g id="text_37">
      <text style="font-family:Arial Narrow;font-size:8px;font-stretch:normal;font-style:normal;font-weight:normal;text-anchor:end;" transform="rotate(-0, 24.5, 313.377758)" x="24.5" y="313.377758">−300</text>
     </g>
    </g>
    <g id="ytick_9">
     <g id="line2d_79">
      <path clip-path="url(#p8c685acf26)" d="M 31.5 280.582645 
L 226.8 280.582645 
" style="fill:none;stroke:#b0b0b0;stroke-dasharray:2.22,0.96;stroke-dashoffset:0;stroke-width:0.6;"/>
     </g>
     <g id="line2d_80">
      <g>
       <use style="stroke:#000000;stroke-width:0.8;" x="31.5" xlink:href="#mda901234b8" y="280.582645"/>
      </g>
     </g>
     <g id="text_38">
      <text style="font-family:Arial Narrow;font-size:8px;font-stretch:normal;font-style:normal;font-weight:normal;text-anchor:end;" transform="rotate(-0, 24.5, 283.44577)" x="24.5" y="283.44577">−200</text>
     </g>
    </g>
    <g id="ytick_10">
     <g id="line2d_81">
      <path clip-path="url(#p8c685acf26)" d="M 31.5 250.650657 
L 226.8 250.650657 
" style="fill:none;stroke:#b0b0b0;stroke-dasharray:2.22,0.96;stroke-dashoffset:0;stroke-width:0.6;"/>
     </g>
     <g id="line2d_82">
      <g>
       <use style="stroke:#000000;stroke-width:0.8;" x="31.5" xlink:href="#mda901234b8" y="250.650657"/>
      </g>
     </g>
     <g id="text_39">
      <text style="font-family:Arial Narrow;font-size:8px;font-stretch:normal;font-style:normal;font-weight:normal;text-anchor:end;" transform="rotate(-0, 24.5, 253.513782)" x="24.5" y="253.513782">−100</text>
     </g>
    </g>
    <g id="ytick_11">
     <g id="line2d_83">
      <path clip-path="url(#p8c685acf26)" d="M 31.5 220.718669 
L 226.8 220.718669 
" style="fill:none;stroke:#b0b0b0;stroke-dasharray:2.22,0.96;stroke-dashoffset:0;stroke-width:0.6;"/>
     </g>
     <g id="line2d_84">
      <g>
       <use style="stroke:#000000;stroke-width:0.8;" x="31.5" xlink:href="#mda901234b8" y="220.718669"/>
      </g>
     </g>
     <g id="text_40">
      <text style="font-family:Arial Narrow;font-size:8px;font-stretch:normal;font-style:normal;font-weight:normal;text-anchor:end;" transform="rotate(-0, 24.5, 223.581794)" x="24.5" y="223.581794">0</text>
     </g>
    </g>
    <g id="text_41">
     <text style="font-family:Arial Narrow;font-size:8px;font-stretch:normal;font-style:normal;font-weight:normal;text-anchor:middle;" transform="rotate(-90, 4.1075, 283.614545)" x="4.1075" y="283.614545">Phase [°]</text>
    </g>
   </g>
   <g id="line2d_85">
    <path clip-path="url(#p8c685acf26)" d="M 31.3047 220.718765 
L 91.0665 220.829261 
L 100.8315 221.068348 
L 106.6905 221.416088 
L 110.9871 221.874999 
L 114.5025 222.465494 
L 117.432 223.177843 
L 119.9709 224.017936 
L 122.3145 225.029929 
L 124.4628 226.199515 
L 126.6111 227.632359 
L 128.7594 229.339696 
L 131.2983 231.674068 
L 136.1808 236.598349 
L 139.1103 239.336161 
L 141.4539 241.218877 
L 143.6022 242.676372 
L 145.9458 243.995675 
L 148.4847 245.162079 
L 151.6095 246.32875 
L 156.492 247.859493 
L 161.3745 249.460081 
L 164.304 250.664141 
L 166.6476 251.863064 
L 168.7959 253.213228 
L 170.7489 254.698734 
L 172.7019 256.4693 
L 174.6549 258.549051 
L 176.8032 261.192823 
L 179.1468 264.448906 
L 182.4669 269.501871 
L 190.8648 282.464002 
L 198.0909 293.20848 
L 200.6298 297.576465 
L 209.0277 312.458971 
L 210.9807 315.258647 
L 212.7384 317.431435 
L 214.4961 319.275987 
L 216.2538 320.812135 
L 218.0115 322.069996 
L 219.9645 323.182484 
L 221.9175 324.03933 
L 224.0658 324.737877 
L 226.4094 325.269446 
L 226.9953 325.372541 
L 226.9953 325.372541 
" style="fill:none;stroke:#0000ff;stroke-linecap:square;"/>
   </g>
   <g id="line2d_86">
    <path clip-path="url(#p8c685acf26)" d="M 31.3047 220.718755 
L 92.043 220.830174 
L 101.6127 221.063214 
L 107.667 221.421849 
L 111.9636 221.884547 
L 115.479 222.479907 
L 118.4085 223.198107 
L 120.9474 224.045065 
L 123.291 225.065267 
L 125.4393 226.244244 
L 127.5876 227.688445 
L 129.7359 229.409148 
L 132.0795 231.57079 
L 135.9855 235.541219 
L 139.3056 238.800803 
L 141.8445 240.974697 
L 144.1881 242.67848 
L 146.5317 244.11066 
L 149.2659 245.507969 
L 152.7813 247.030925 
L 159.8121 250.01585 
L 162.351 251.360844 
L 164.6946 252.859804 
L 166.8429 254.516384 
L 168.7959 256.297715 
L 170.9442 258.580956 
L 173.2878 261.437444 
L 176.2173 265.407266 
L 183.4434 275.396067 
L 185.787 278.181699 
L 187.74 280.160747 
L 189.693 281.81697 
L 193.9896 285.271666 
L 195.3567 286.727451 
L 196.7238 288.487011 
L 198.2862 290.879972 
L 200.0439 293.999673 
L 202.5828 299.041141 
L 207.4653 308.840574 
L 209.6136 312.584351 
L 211.5666 315.523563 
L 213.3243 317.778146 
L 215.082 319.682492 
L 216.8397 321.271381 
L 218.5974 322.585472 
L 220.5504 323.772726 
L 222.6987 324.805842 
L 225.0423 325.673119 
L 226.9953 326.232215 
L 226.9953 326.232215 
" style="fill:none;stroke:#0000ff;stroke-dasharray:3.7,1.6;stroke-dashoffset:0;"/>
   </g>
   <g id="line2d_87">
    <path clip-path="url(#p8c685acf26)" d="M 31.3047 220.718804 
L 88.137 220.82858 
L 97.902 221.066196 
L 103.9563 221.427925 
L 108.2529 221.894583 
L 111.7683 222.494953 
L 114.6978 223.219006 
L 117.2367 224.072493 
L 119.5803 225.099843 
L 121.7286 226.285828 
L 123.8769 227.736316 
L 126.0252 229.460443 
L 128.5641 231.809011 
L 137.1573 240.08634 
L 139.5009 241.836055 
L 141.6492 243.172915 
L 143.9928 244.373158 
L 146.5317 245.429259 
L 149.6565 246.483943 
L 154.9296 247.979652 
L 159.6168 249.397265 
L 162.5463 250.516141 
L 164.8899 251.634011 
L 167.0382 252.89359 
L 168.9912 254.277512 
L 170.9442 255.921687 
L 172.8972 257.842549 
L 175.0455 260.263746 
L 177.5844 263.464618 
L 181.881 269.310872 
L 189.4977 280.013885 
L 192.6225 284.825336 
L 195.3567 289.44591 
L 198.2862 294.847814 
L 206.6841 310.738305 
L 208.6371 313.797423 
L 210.5901 316.434916 
L 212.3478 318.440971 
L 214.1055 320.116413 
L 215.8632 321.491327 
L 217.6209 322.600837 
L 219.5739 323.56542 
L 221.5269 324.292028 
L 223.6752 324.867795 
L 226.2141 325.322178 
L 226.9953 325.42732 
L 226.9953 325.42732 
" style="fill:none;stroke:#008000;stroke-linecap:square;"/>
   </g>
   <g id="line2d_88">
    <path clip-path="url(#p8c685acf26)" d="M 31.3047 220.718765 
L 91.0665 220.829424 
L 100.8315 221.068866 
L 106.6905 221.417124 
L 110.9871 221.876725 
L 114.5025 222.468128 
L 117.432 223.181617 
L 119.9709 224.023142 
L 122.3145 225.037029 
L 124.4628 226.209108 
L 126.6111 227.64558 
L 128.7594 229.358304 
L 131.103 231.512086 
L 135.009 235.474664 
L 138.5244 238.911602 
L 140.868 240.906168 
L 143.2116 242.607347 
L 145.5552 244.033245 
L 148.2894 245.416791 
L 151.6095 246.8309 
L 159.6168 250.131074 
L 162.1557 251.472992 
L 164.304 252.842923 
L 166.257 254.328367 
L 168.21 256.083394 
L 170.163 258.133248 
L 172.3113 260.726788 
L 174.8502 264.17463 
L 182.2716 274.557462 
L 184.0293 276.51753 
L 185.5917 277.962849 
L 187.3494 279.287203 
L 191.2554 282.068879 
L 192.6225 283.397589 
L 193.9896 285.042097 
L 195.552 287.323076 
L 197.3097 290.355325 
L 199.458 294.580112 
L 207.4653 310.93759 
L 209.4183 314.135898 
L 211.176 316.608144 
L 212.9337 318.707487 
L 214.6914 320.465864 
L 216.4491 321.924238 
L 218.4021 323.244787 
L 220.3551 324.302897 
L 222.5034 325.221335 
L 224.847 325.990949 
L 226.9953 326.529846 
L 226.9953 326.529846 
" style="fill:none;stroke:#008000;stroke-dasharray:3.7,1.6;stroke-dashoffset:0;"/>
   </g>
   <g id="line2d_89">
    <path clip-path="url(#p8c685acf26)" d="M 31.3047 220.718783 
L 89.6994 220.830213 
L 99.2691 221.063332 
L 105.3234 221.422087 
L 109.62 221.88493 
L 113.1354 222.480451 
L 116.0649 223.198788 
L 118.6038 224.045796 
L 120.9474 225.065841 
L 123.0957 226.244253 
L 125.244 227.687049 
L 127.3923 229.404783 
L 129.9312 231.75046 
L 138.915 240.410503 
L 141.2586 242.146205 
L 143.6022 243.590043 
L 146.1411 244.874483 
L 149.0706 246.089404 
L 153.3672 247.590687 
L 158.8356 249.530991 
L 161.5698 250.732779 
L 163.9134 251.996458 
L 166.0617 253.413252 
L 168.0147 254.967697 
L 169.9677 256.816629 
L 171.9207 258.984384 
L 174.069 261.733734 
L 176.4126 265.106712 
L 180.1233 270.907473 
L 184.6152 277.855936 
L 187.9353 282.557085 
L 192.4272 288.880852 
L 194.7708 292.621051 
L 197.3097 297.104887 
L 204.9264 310.908789 
L 207.0747 314.160078 
L 209.0277 316.698434 
L 210.7854 318.632193 
L 212.5431 320.247892 
L 214.3008 321.572471 
L 216.0585 322.638695 
L 218.0115 323.561798 
L 220.1598 324.311669 
L 222.5034 324.879817 
L 225.4329 325.344261 
L 226.9953 325.538433 
L 226.9953 325.538433 
" style="fill:none;stroke:#ff0000;stroke-linecap:square;"/>
   </g>
   <g id="line2d_90">
    <path clip-path="url(#p8c685acf26)" d="M 31.3047 220.718767 
L 90.8712 220.828747 
L 100.6362 221.066726 
L 106.6905 221.42901 
L 110.9871 221.896396 
L 114.5025 222.497733 
L 117.432 223.223022 
L 119.9709 224.078102 
L 122.3145 225.107634 
L 124.4628 226.296607 
L 126.6111 227.751631 
L 128.7594 229.48277 
L 131.2983 231.84462 
L 140.2821 240.561721 
L 142.6257 242.322581 
L 144.9693 243.802741 
L 147.5082 245.143677 
L 150.633 246.534634 
L 160.0074 250.514656 
L 162.351 251.831029 
L 164.4993 253.281809 
L 166.4523 254.854665 
L 168.4053 256.707209 
L 170.3583 258.857945 
L 172.5066 261.553319 
L 175.2408 265.366581 
L 180.7092 273.115238 
L 182.6622 275.456332 
L 184.4199 277.200835 
L 186.1776 278.59416 
L 191.2554 282.26421 
L 192.6225 283.714554 
L 193.9896 285.490269 
L 195.552 287.910364 
L 197.3097 291.06822 
L 199.6533 295.800493 
L 206.0982 309.163203 
L 208.0512 312.588757 
L 209.8089 315.274226 
L 211.5666 317.57768 
L 213.3243 319.521312 
L 215.082 321.141877 
L 216.8397 322.481637 
L 218.7927 323.691909 
L 220.941 324.745214 
L 223.2846 325.629963 
L 225.8235 326.347756 
L 226.9953 326.61177 
L 226.9953 326.61177 
" style="fill:none;stroke:#ff0000;stroke-dasharray:3.7,1.6;stroke-dashoffset:0;"/>
   </g>
   <g id="patch_9">
    <path d="M 31.5 352.8 
L 31.5 214.429091 
" style="fill:none;stroke:#000000;stroke-linecap:square;stroke-linejoin:miter;stroke-width:0.8;"/>
   </g>
   <g id="patch_10">
    <path d="M 226.8 352.8 
L 226.8 214.429091 
" style="fill:none;stroke:#000000;stroke-linecap:square;stroke-linejoin:miter;stroke-width:0.8;"/>
   </g>
   <g id="patch_11">
    <path d="M 31.5 352.8 
L 226.8 352.8 
" style="fill:none;stroke:#000000;stroke-linecap:square;stroke-linejoin:miter;stroke-width:0.8;"/>
   </g>
   <g id="patch_12">
    <path d="M 31.5 214.429091 
L 226.8 214.429091 
" style="fill:none;stroke:#000000;stroke-linecap:square;stroke-linejoin:miter;stroke-width:0.8;"/>
   </g>
   <g id="legend_2">
    <g id="patch_13">
     <path d="M 37.1 348.8 
L 121.305 348.8 
Q 122.905 348.8 122.905 347.2 
L 122.905 279.5625 
Q 122.905 277.9625 121.305 277.9625 
L 37.1 277.9625 
Q 35.5 277.9625 35.5 279.5625 
L 35.5 347.2 
Q 35.5 348.8 37.1 348.8 
z
" style="fill:#ffffff;opacity:0.8;stroke:#cccccc;stroke-linejoin:miter;"/>
    </g>
    <g id="line2d_91">
     <path d="M 38.7 284.08875 
L 54.7 284.08875 
" style="fill:none;stroke:#0000ff;stroke-linecap:square;"/>
    </g>
    <g id="line2d_92"/>
    <g id="text_42">
     <text style="font-family:Arial Narrow;font-size:8px;font-stretch:normal;font-style:normal;font-weight:normal;text-anchor:start;" transform="rotate(-0, 61.1, 286.88875)" x="61.1" y="286.88875">Schematic -25° C</text>
    </g>
    <g id="line2d_93">
     <path d="M 38.7 295.49125 
L 54.7 295.49125 
" style="fill:none;stroke:#0000ff;stroke-dasharray:3.7,1.6;stroke-dashoffset:0;"/>
    </g>
    <g id="line2d_94"/>
    <g id="text_43">
     <text style="font-family:Arial Narrow;font-size:8px;font-stretch:normal;font-style:normal;font-weight:normal;text-anchor:start;" transform="rotate(-0, 61.1, 298.29125)" x="61.1" y="298.29125">Post Layout -25° C</text>
    </g>
    <g id="line2d_95">
     <path d="M 38.7 306.90125 
L 54.7 306.90125 
" style="fill:none;stroke:#008000;stroke-linecap:square;"/>
    </g>
    <g id="line2d_96"/>
    <g id="text_44">
     <text style="font-family:Arial Narrow;font-size:8px;font-stretch:normal;font-style:normal;font-weight:normal;text-anchor:start;" transform="rotate(-0, 61.1, 309.70125)" x="61.1" y="309.70125">Schematic 25° C</text>
    </g>
    <g id="line2d_97">
     <path d="M 38.7 318.30375 
L 54.7 318.30375 
" style="fill:none;stroke:#008000;stroke-dasharray:3.7,1.6;stroke-dashoffset:0;"/>
    </g>
    <g id="line2d_98"/>
    <g id="text_45">
     <text style="font-family:Arial Narrow;font-size:8px;font-stretch:normal;font-style:normal;font-weight:normal;text-anchor:start;" transform="rotate(-0, 61.1, 321.10375)" x="61.1" y="321.10375">Post Layout 25° C</text>
    </g>
    <g id="line2d_99">
     <path d="M 38.7 329.71375 
L 54.7 329.71375 
" style="fill:none;stroke:#ff0000;stroke-linecap:square;"/>
    </g>
    <g id="line2d_100"/>
    <g id="text_46">
     <text style="font-family:Arial Narrow;font-size:8px;font-stretch:normal;font-style:normal;font-weight:normal;text-anchor:start;" transform="rotate(-0, 61.1, 332.51375)" x="61.1" y="332.51375">Schematic 75° C</text>
    </g>
    <g id="line2d_101">
     <path d="M 38.7 341.11625 
L 54.7 341.11625 
" style="fill:none;stroke:#ff0000;stroke-dasharray:3.7,1.6;stroke-dashoffset:0;"/>
    </g>
    <g id="line2d_102"/>
    <g id="text_47">
     <text style="font-family:Arial Narrow;font-size:8px;font-stretch:normal;font-style:normal;font-weight:normal;text-anchor:start;" transform="rotate(-0, 61.1, 343.91625)" x="61.1" y="343.91625">Post Layout 75° C</text>
    </g>
   </g>
  </g>
 </g>
 <defs>
  <clipPath id="pbdbcdc3fd1">
   <rect height="138.370909" width="195.3" x="31.5" y="48.384"/>
  </clipPath>
  <clipPath id="p8c685acf26">
   <rect height="138.370909" width="195.3" x="31.5" y="214.429091"/>
  </clipPath>
 </defs>
</svg>
