<svg xmlns="http://www.w3.org/2000/svg" xmlns:xlink="http://www.w3.org/1999/xlink" width="1000" height="700" version="1.1">
<style type="text/css">
.l0{
  fill: #000000;
  stroke: #000000;
  stroke-linecap:round;
  stroke-linejoin:round;
  stroke-width: 5.6627;
}
.l1{
  fill: #00ccee;
  stroke: #00ccee;
  stroke-linecap:round;
  stroke-linejoin:round;
  stroke-width: 5.6627;
}
.l2{
  fill: #4f4f4f; fill-opacity: 0.2;
  stroke: #4f4f4f;
  stroke-linecap:round;
  stroke-linejoin:round;
  stroke-width: 5.6627;
}
.l3{
  fill: #cccccc; fill-opacity: 0.5;
  stroke: #cccccc;
  stroke-linecap:round;
  stroke-linejoin:round;
  stroke-width: 5.6627;
}
.l4{
  fill: #88dd00;
  stroke: #88dd00;
  stroke-linecap:round;
  stroke-linejoin:round;
  stroke-width: 5.6627;
}
.l5{
  fill: #bb2200;
  stroke: #bb2200;
  stroke-linecap:round;
  stroke-linejoin:round;
  stroke-width: 5.6627;
}
.l6{
  fill: #00ccee; fill-opacity: 0.5;
  stroke: #00ccee;
  stroke-linecap:round;
  stroke-linejoin:round;
  stroke-width: 5.6627;
}
.l7{
  fill: #ff0000; fill-opacity: 0.5;
  stroke: #ff0000;
  stroke-linecap:round;
  stroke-linejoin:round;
  stroke-width: 5.6627;
}
.l8{
  fill: #ffff00; fill-opacity: 0.5;
  stroke: #ffff00;
  stroke-linecap:round;
  stroke-linejoin:round;
  stroke-width: 5.6627;
}
.l9{
  fill: #ffffff; fill-opacity: 0.5;
  stroke: #ffffff;
  stroke-linecap:round;
  stroke-linejoin:round;
  stroke-width: 5.6627;
}
.l10{
  fill: #ff00ff;
  stroke: #ff00ff;
  stroke-linecap:round;
  stroke-linejoin:round;
  stroke-width: 5.6627;
}
.l11{
  fill: #00ff00; fill-opacity: 0.5;
  stroke: #00ff00;
  stroke-linecap:round;
  stroke-linejoin:round;
  stroke-width: 5.6627;
}
.l12{
  fill: #0000ff; fill-opacity: 0.5;
  stroke: #0000ff;
  stroke-linecap:round;
  stroke-linejoin:round;
  stroke-width: 5.6627;
}
.l13{
  fill: #aaaa00; fill-opacity: 0.5;
  stroke: #aaaa00;
  stroke-linecap:round;
  stroke-linejoin:round;
  stroke-width: 5.6627;
}
.l14{
  fill: #aaccaa; fill-opacity: 0.2;
  stroke: #aaccaa;
  stroke-linecap:round;
  stroke-linejoin:round;
  stroke-width: 5.6627;
}
.l15{
  fill: #ff7777; fill-opacity: 0.5;
  stroke: #ff7777;
  stroke-linecap:round;
  stroke-linejoin:round;
  stroke-width: 5.6627;
}
.l16{
  fill: #bfff81; fill-opacity: 0.5;
  stroke: #bfff81;
  stroke-linecap:round;
  stroke-linejoin:round;
  stroke-width: 5.6627;
}
.l17{
  fill: #00ffcc; fill-opacity: 0.2;
  stroke: #00ffcc;
  stroke-linecap:round;
  stroke-linejoin:round;
  stroke-width: 5.6627;
}
.l18{
  fill: #ce0097; fill-opacity: 0.5;
  stroke: #ce0097;
  stroke-linecap:round;
  stroke-linejoin:round;
  stroke-width: 5.6627;
}
.l19{
  fill: #d2d46b; fill-opacity: 0.2;
  stroke: #d2d46b;
  stroke-linecap:round;
  stroke-linejoin:round;
  stroke-width: 5.6627;
}
.l20{
  fill: #ef6158; fill-opacity: 0.2;
  stroke: #ef6158;
  stroke-linecap:round;
  stroke-linejoin:round;
  stroke-width: 5.6627;
}
.l21{
  fill: #fdb200; fill-opacity: 0.2;
  stroke: #fdb200;
  stroke-linecap:round;
  stroke-linejoin:round;
  stroke-width: 5.6627;
}
text {font-family: Sans-Serif;}
</style>
<rect class="l0" x="0" y="0" width="1000" height="700"/>
<text fill="#cccccc"  xml:space="preserve" font-size="54.5297" transform="translate(788.378, 505.689)" >@name</text>
<text fill="#cccccc"  xml:space="preserve" font-size="54.5297" transform="translate(408.319, 288.392) rotate(270)" >AVDD</text>
<text fill="#cccccc"  xml:space="preserve" font-size="54.5297" transform="translate(408.319, 550.554) rotate(270)" >AVSS</text>
<text fill="#cccccc"  xml:space="preserve" font-size="54.5297" transform="translate(159.189, 285.472)" >INP</text>
<text fill="#cccccc"  xml:space="preserve" font-size="54.5297" transform="translate(159.189, 495.202)" >INM</text>
<text fill="#cccccc"  xml:space="preserve" font-size="54.5297" transform="translate(513.184, 266.559) rotate(270)" >NB_10U</text>
<text fill="#cccccc"  xml:space="preserve" font-size="54.5297" transform="translate(618.048, 324.092) rotate(270)" >NBC_10U</text>
<text fill="#cccccc"  xml:space="preserve" font-size="54.5297" transform="translate(820.411, 390.337)" >VOUT</text>
<path class="l4" d="M28.1081 256.932L132.973 256.932"/>
<path class="l4" d="M28.1081 466.662L132.973 466.662"/>
<path class="l4" d="M500 99.6351L500 204.5"/>
<path class="l4" d="M604.865 152.068L604.865 256.932"/>
<path class="l4" d="M867.027 361.797L971.892 361.797"/>
<path class="l4" d="M132.973 47.2027L132.973 676.392"/>
<path class="l4" d="M132.973 676.392L867.027 361.797"/>
<path class="l4" d="M132.973 47.2027L867.027 361.797"/>
<path class="l5" d="M382.027 34.0946L408.243 34.0946L408.243 60.3108L382.027 60.3108L382.027 34.0946z"/>
<path class="l5" d="M382.027 663.284L408.243 663.284L408.243 689.5L382.027 689.5L382.027 663.284z"/>
<path class="l5" d="M15 243.824L41.2162 243.824L41.2162 270.041L15 270.041L15 243.824z"/>
<path class="l5" d="M15 453.554L41.2162 453.554L41.2162 479.77L15 479.77L15 453.554z"/>
<path class="l5" d="M486.892 86.527L513.108 86.527L513.108 112.743L486.892 112.743L486.892 86.527z"/>
<path class="l5" d="M591.757 138.959L617.973 138.959L617.973 165.176L591.757 165.176L591.757 138.959z"/>
<path class="l5" d="M958.784 348.689L985 348.689L985 374.905L958.784 374.905L958.784 348.689z"/>
<path class="l7" d="M395.135 47.2027L395.135 152.068"/>
<path class="l7" d="M395.135 571.527L395.135 676.392"/>
</svg>
